<svg width="273" height="48" viewBox="0 0 273 48" fill="none" xmlns="http://www.w3.org/2000/svg">
    <path
        d="M0 8C0 3.58172 3.58172 0 8 0H40C44.4183 0 48 3.58172 48 8V40C48 44.4183 44.4183 48 40 48H8C3.58172 48 0 44.4183 0 40V8Z"
        fill="url(#paint0_linear_522_49)"/>
    <path
        d="M65.6548 8.4545H73.6193L82.0312 28.9772H82.3892L90.8011 8.4545H98.7656V39H92.5014V19.1186H92.2478L84.343 38.8508H80.0774L72.1725 19.044H71.919V39H65.6548V8.4545Z"
        fill="#322641"/>
    <path
        d="M103.967 39V16.0909H110.321V39H103.967ZM107.159 13.1377C106.214 13.1377 105.404 12.8245 104.728 12.1981C104.062 11.5617 103.728 10.8011 103.728 9.91615C103.728 9.04115 104.062 8.29044 104.728 7.66402C105.404 7.02766 106.214 6.70947 107.159 6.70947C108.103 6.70947 108.909 7.02766 109.575 7.66402C110.251 8.29044 110.589 9.04115 110.589 9.91615C110.589 10.8011 110.251 11.5617 109.575 12.1981C108.909 12.8245 108.103 13.1377 107.159 13.1377Z"
        fill="#322641"/>
    <path
        d="M121.764 25.7556V39H115.41V16.0909H121.466V20.1328H121.734C122.241 18.8004 123.092 17.7464 124.285 16.9708C125.478 16.1853 126.925 15.7926 128.625 15.7926C130.216 15.7926 131.603 16.1406 132.786 16.8366C133.969 17.5326 134.889 18.5269 135.545 19.8196C136.202 21.1022 136.53 22.6335 136.53 24.4133V39H130.176V25.5468C130.186 24.1448 129.828 23.0511 129.102 22.2656C128.376 21.4701 127.377 21.0724 126.104 21.0724C125.249 21.0724 124.494 21.2563 123.837 21.6242C123.191 21.9921 122.684 22.5291 122.316 23.235C121.958 23.9311 121.774 24.7713 121.764 25.7556Z"
        fill="#322641"/>
    <path
        d="M149.979 39.3728C148.239 39.3728 146.663 38.9254 145.251 38.0305C143.849 37.1257 142.736 35.7983 141.91 34.0483C141.095 32.2883 140.687 30.1306 140.687 27.5752C140.687 24.9502 141.11 22.7677 141.955 21.0277C142.8 19.2777 143.924 17.9701 145.326 17.1051C146.738 16.2301 148.284 15.7926 149.964 15.7926C151.247 15.7926 152.316 16.0113 153.171 16.4488C154.036 16.8764 154.732 17.4133 155.259 18.0596C155.796 18.696 156.204 19.3224 156.482 19.9389H156.676V8.4545H163.015V39H156.75V35.3309H156.482C156.184 35.9673 155.761 36.5987 155.214 37.2251C154.677 37.8416 153.976 38.3537 153.111 38.7613C152.256 39.169 151.212 39.3728 149.979 39.3728ZM151.993 34.3167C153.017 34.3167 153.882 34.0383 154.588 33.4815C155.304 32.9147 155.851 32.1242 156.228 31.11C156.616 30.0958 156.81 28.9076 156.81 27.5454C156.81 26.1832 156.621 25 156.243 23.9957C155.866 22.9914 155.319 22.2159 154.603 21.669C153.887 21.1221 153.017 20.8487 151.993 20.8487C150.949 20.8487 150.069 21.1321 149.353 21.6988C148.637 22.2656 148.095 23.0511 147.727 24.0554C147.359 25.0596 147.175 26.223 147.175 27.5454C147.175 28.8778 147.359 30.0561 147.727 31.0802C148.105 32.0944 148.647 32.8899 149.353 33.4666C150.069 34.0333 150.949 34.3167 151.993 34.3167Z"
        fill="#322641"/>
    <path
        d="M172.758 39L166.523 16.0909H172.952L176.501 31.4829H176.71L180.409 16.0909H186.718L190.477 31.3934H190.67L194.16 16.0909H200.574L194.354 39H187.628L183.69 24.5923H183.407L179.469 39H172.758Z"
        fill="#322641"/>
    <path
        d="M210.496 39.4325C209.034 39.4325 207.732 39.1789 206.588 38.6718C205.445 38.1548 204.54 37.3941 203.874 36.3899C203.217 35.3757 202.889 34.1129 202.889 32.6015C202.889 31.3288 203.123 30.2599 203.59 29.3948C204.058 28.5298 204.694 27.8338 205.499 27.3068C206.305 26.7798 207.22 26.3821 208.244 26.1136C209.278 25.8451 210.362 25.6562 211.495 25.5468C212.828 25.4076 213.901 25.2784 214.717 25.159C215.532 25.0298 216.124 24.8409 216.492 24.5923C216.86 24.3437 217.043 23.9758 217.043 23.4886V23.3991C217.043 22.4545 216.745 21.7237 216.149 21.2066C215.562 20.6896 214.727 20.4311 213.643 20.4311C212.499 20.4311 211.59 20.6846 210.913 21.1917C210.237 21.6889 209.79 22.3153 209.571 23.071L203.695 22.5937C203.993 21.2017 204.58 19.9985 205.455 18.9843C206.33 17.9602 207.458 17.1747 208.84 16.6278C210.232 16.071 211.843 15.7926 213.673 15.7926C214.945 15.7926 216.163 15.9417 217.327 16.24C218.5 16.5383 219.539 17.0007 220.444 17.6271C221.359 18.2535 222.08 19.0589 222.607 20.0433C223.134 21.0177 223.397 22.186 223.397 23.5483V39H217.372V35.8231H217.193C216.825 36.539 216.333 37.1704 215.716 37.7173C215.1 38.2542 214.359 38.6768 213.494 38.985C212.629 39.2833 211.629 39.4325 210.496 39.4325ZM212.315 35.0475C213.25 35.0475 214.075 34.8636 214.791 34.4957C215.507 34.1179 216.069 33.6108 216.477 32.9744C216.884 32.338 217.088 31.6171 217.088 30.8117V28.3806C216.889 28.5099 216.616 28.6292 216.268 28.7386C215.93 28.838 215.547 28.9325 215.119 29.022C214.692 29.1015 214.264 29.1761 213.837 29.2457C213.409 29.3054 213.021 29.36 212.673 29.4098C211.928 29.5191 211.276 29.6931 210.72 29.9318C210.163 30.1704 209.73 30.4936 209.422 30.9012C209.114 31.299 208.96 31.7961 208.96 32.3927C208.96 33.2578 209.273 33.919 209.899 34.3764C210.536 34.8238 211.341 35.0475 212.315 35.0475Z"
        fill="#322641"/>
    <path
        d="M248.864 16.0909L240.855 39H233.696L225.687 16.0909H232.398L237.156 32.4822H237.395L242.138 16.0909H248.864Z"
        fill="#322641"/>
    <path
        d="M261.818 39.4474C259.461 39.4474 257.433 38.9701 255.732 38.0156C254.042 37.0511 252.739 35.6889 251.825 33.9289C250.91 32.159 250.453 30.066 250.453 27.6498C250.453 25.2933 250.91 23.2251 251.825 21.4453C252.739 19.6654 254.027 18.2784 255.688 17.284C257.358 16.2897 259.317 15.7926 261.564 15.7926C263.075 15.7926 264.482 16.0362 265.785 16.5234C267.097 17.0007 268.241 17.7215 269.215 18.686C270.2 19.6505 270.965 20.8636 271.512 22.3252C272.059 23.7769 272.333 25.4772 272.333 27.4261V29.1711H252.988V25.2336H266.352C266.352 24.3188 266.153 23.5085 265.755 22.8025C265.357 22.0965 264.806 21.5447 264.1 21.147C263.404 20.7393 262.593 20.5355 261.668 20.5355C260.704 20.5355 259.849 20.7592 259.103 21.2066C258.367 21.6441 257.791 22.2358 257.373 22.9815C256.955 23.7173 256.742 24.5376 256.732 25.4424V29.186C256.732 30.3196 256.94 31.299 257.358 32.1242C257.786 32.9495 258.387 33.5859 259.163 34.0333C259.938 34.4808 260.858 34.7045 261.922 34.7045C262.628 34.7045 263.274 34.6051 263.861 34.4062C264.448 34.2073 264.95 33.909 265.367 33.5113C265.785 33.1136 266.103 32.6264 266.322 32.0497L272.198 32.4375C271.9 33.8494 271.288 35.0823 270.364 36.1363C269.449 37.1804 268.266 37.9957 266.814 38.5823C265.372 39.159 263.707 39.4474 261.818 39.4474Z"
        fill="#322641"/>
    <path
        d="M29.4444 25.5555C28.0005 25.5555 26.6157 26.1291 25.5946 27.1502C24.5736 28.1712 24 29.556 24 31M24 31V32.5555M24 31C24 29.556 23.4264 28.1712 22.4053 27.1502C21.3843 26.1291 19.9995 25.5555 18.5555 25.5555M24 31L24 15.4445M24 32.5555C24 33.9995 24.5736 35.3843 25.5946 36.4054C26.6157 37.4264 28.0005 38 29.4444 38C30.8884 38 32.2732 37.4264 33.2942 36.4054C34.3153 35.3843 34.8889 33.9995 34.8889 32.5555V29.7555M24 32.5555C24 33.9995 23.4264 35.3843 22.4053 36.4054C21.3843 37.4264 19.9995 38 18.5555 38C17.1116 38 15.7268 37.4264 14.7057 36.4054C13.6847 35.3843 13.1111 33.9995 13.1111 32.5555V29.7555M32.5556 30.2223C33.9996 30.2223 35.3844 29.6487 36.4054 28.6276C37.4264 27.6066 38.0001 26.2218 38.0001 24.7778C38.0001 23.3338 37.4264 21.949 36.4054 20.928C35.3844 19.907 33.9996 19.3334 32.5556 19.3334H31.7778M34.8889 19.8V15.4445C34.8889 14.0005 34.3153 12.6157 33.2942 11.5946C32.2732 10.5736 30.8884 10 29.4444 10C28.0005 10 26.6157 10.5736 25.5946 11.5946C24.5736 12.6157 24 14.0005 24 15.4445M24 15.4445C24 14.0005 23.4264 12.6157 22.4054 11.5946C21.3843 10.5736 19.9995 10 18.5556 10C17.1116 10 15.7268 10.5736 14.7058 11.5946C13.6847 12.6157 13.1111 14.0005 13.1111 15.4445V19.8M15.4444 30.2223C14.0005 30.2223 12.6157 29.6487 11.5946 28.6276C10.5736 27.6066 10 26.2218 10 24.7778C10 23.3338 10.5736 21.949 11.5946 20.928C12.6157 19.907 14.0005 19.3334 15.4444 19.3334H16.2222"
        stroke="white" stroke-width="3" stroke-linecap="round" stroke-linejoin="round"/>
    <defs>
        <linearGradient id="paint0_linear_522_49" x1="24" y1="0" x2="24" y2="48" gradientUnits="userSpaceOnUse">
            <stop stop-color="#B27BC0"/>
            <stop offset="1" stop-color="#884299"/>
        </linearGradient>
    </defs>
</svg>
